# xmcd CD database file
# Copyright (C) 1997 Ti Kan
# 
# Track frame offsets:
#     183
#     15593
#     32010
#     46020
#     59670
#     75275
#     89623
#     103355
#     117108
#     131318
#     145018
#     160595
#     172333
#     186443
#     201258
#     214190
#     226973
#     239250
# 
# Disc length: 3348 seconds
# 
# Revision: 1
# Processed by: cddbd v1.4b41PL1 Copyright (c) Steve Scherf et al.
# Submitted via: DiscPlay 4.0.4
# 
DISCID=f40d1212
DTITLE=Louis Armstrong - Essential Collection. Disc 1
DYEAR=1900
DGENRE=
TTITLE0=Sleepy Time Down South
TTITLE1=Stardust
TTITLE2=I Got Thythm
TTITLE3=Between The Devil And The Deep Blue Sea
TTITLE4=Lord, You Made The Night Too Long
TTITLE5=That's My Home
TTITLE6=Hobo, You Can't Ride This Train
TTITLE7=I Gotta Right To Sing The Blues
TTITLE8=Hustlin' And Bustlin' For Baby
TTITLE9=Some Sweet Day
TTITLE10=Basin Street Blues
TTITLE11=Mahogany Hall Blues Stomp
TTITLE12=I'm In The Mood For Love
TTITLE13=I Hope Gabriel Likes My Music
TTITLE14=Ev'ntide
TTITLE15=Swing That Music
TTITLE16=Dippermouth Blues
TTITLE17=Jeepers Creepers
EXTD=
EXTT0=
EXTT1=
EXTT2=
EXTT3=
EXTT4=
EXTT5=
EXTT6=
EXTT7=
EXTT8=
EXTT9=
EXTT10=
EXTT11=
EXTT12=
EXTT13=
EXTT14=
EXTT15=
EXTT16=
EXTT17=
PLAYORDER=
